<?xml version="1.0" encoding="UTF-8" standalone="no"?>
<!-- Created with Inkscape (http://www.inkscape.org/) -->

<svg
   width="193.19511mm"
   height="32mm"
   viewBox="0 0 193.19511 32"
   version="1.1"
   id="svg934"
   inkscape:version="1.1 (c68e22c387, 2021-05-23)"
   sodipodi:docname="amq-broker-logo.svg"
   xmlns:inkscape="http://www.inkscape.org/namespaces/inkscape"
   xmlns:sodipodi="http://sodipodi.sourceforge.net/DTD/sodipodi-0.dtd"
   xmlns="http://www.w3.org/2000/svg"
   xmlns:svg="http://www.w3.org/2000/svg">
  <sodipodi:namedview
     id="namedview936"
     pagecolor="#ffffff"
     bordercolor="#666666"
     borderopacity="1.0"
     inkscape:pageshadow="2"
     inkscape:pageopacity="0.0"
     inkscape:pagecheckerboard="0"
     inkscape:document-units="mm"
     showgrid="false"
     fit-margin-top="0"
     fit-margin-left="0"
     fit-margin-right="0"
     fit-margin-bottom="0"
     inkscape:zoom="1.0998546"
     inkscape:cx="-24.094094"
     inkscape:cy="416.87328"
     inkscape:window-width="2560"
     inkscape:window-height="1376"
     inkscape:window-x="1280"
     inkscape:window-y="27"
     inkscape:window-maximized="1"
     inkscape:current-layer="layer1" />
  <defs
     id="defs931" />
  <g
     inkscape:label="Layer 1"
     inkscape:groupmode="layer"
     id="layer1"
     transform="translate(-4.9999999,-4.9999996)">
    <g
       id="g1102"
       transform="matrix(0.83989504,0,0,0.83989504,-15.281935,-26.432423)">
      <path
         d="m 65.759199,53.857497 a 3.7041666,3.7041666 0 0 1 0.08202,0.904875 c 0,3.937 -4.788958,4.619625 -8.098896,4.619625 -12.869333,0 -22.473708,-7.998354 -22.473708,-10.448395 a 1.7012708,1.7012708 0 0 1 0.05821,-0.513292 l -0.968375,2.397125 a 4.8815624,4.8815624 0 0 0 -0.39952,1.939396 c 0,4.791604 10.847916,12.033249 23.214541,12.033249 5.474229,0 9.638771,-2.053166 9.638771,-5.759979 0,-0.28575 0,-0.513291 -0.45773,-2.680229 z"
         id="path104"
         style="stroke-width:0.264583" />
      <path
         class="cls-1"
         d="m 57.742324,59.381997 c 3.309938,0 8.098896,-0.682625 8.098896,-4.619625 A 3.7041666,3.7041666 0 0 0 65.7592,53.857497 l -1.971146,-8.561916 c -0.455083,-1.883834 -0.854604,-2.738438 -4.161896,-4.392084 -2.566458,-1.312333 -8.157104,-3.47927 -9.810749,-3.47927 -1.539875,0 -1.987021,1.984375 -3.82323,1.984375 -1.767416,0 -3.07975,-1.481667 -4.733395,-1.481667 -1.5875,0 -2.622021,1.082146 -3.421063,3.307292 0,0 -2.225146,6.275916 -2.510896,7.186083 a 1.7012708,1.7012708 0 0 0 -0.05821,0.513292 c 0,2.439458 9.604375,10.437812 22.473708,10.437812 m 8.606896,-3.010958 c 0.457729,2.166937 0.457729,2.394479 0.457729,2.680229 0,3.704166 -4.164542,5.759979 -9.638771,5.759979 -12.371916,0.0079 -23.209249,-7.241646 -23.209249,-12.03325 a 4.8815624,4.8815624 0 0 1 0.39952,-1.939396 c -4.450291,0.22225 -10.21027,1.016 -10.21027,6.101292 0,8.329083 19.73527,18.594916 35.361562,18.594916 11.980333,0 15.001875,-5.418666 15.001875,-9.696979 0,-3.3655 -2.910417,-7.186083 -8.157105,-9.466791"
         id="path106"
         style="fill:#ee0000;stroke-width:0.264583" />
    </g>
    <g
       id="Layer_2"
       data-name="Layer 2"
       transform="matrix(0.97978784,0,0,0.97978784,53.3,5.0001291)"
       style="fill:#ffffff">
      <g
         id="Layer_1-2"
         data-name="Layer 1"
         style="fill:#ffffff">
        <path
           class="cls-1"
           d="M 7,11.4 5.16,7.62 H 3.9 v 3.78 h -3 V 0.2 h 5 A 7.16,7.16 0 0 1 7.66,0.4 3.65,3.65 0 0 1 9,1 2.86,2.86 0 0 1 9.89,2.13 4,4 0 0 1 10.2,3.81 3.64,3.64 0 0 1 9.7,5.91 3.46,3.46 0 0 1 8.22,7.12 l 2.24,4.28 z M 6.84,3.06 a 1.41,1.41 0 0 0 -1,-0.34 H 3.9 V 5.17 H 5.74 A 1.48,1.48 0 0 0 6.83,4.85 1.22,1.22 0 0 0 7.15,3.92 1.2,1.2 0 0 0 6.84,3.06 Z"
           id="path197"
           style="fill:#ffffff" />
        <path
           class="cls-1"
           d="M 12.32,11.4 V 0.2 h 8.58 v 2.6 h -5.51 v 1.51 h 3.32 V 6.87 H 15.39 V 8.79 H 21 v 2.61 z"
           id="path199"
           style="fill:#ffffff" />
        <path
           class="cls-1"
           d="m 32.29,8.4 a 4.06,4.06 0 0 1 -1.15,1.74 4.81,4.81 0 0 1 -1.9,1 10.21,10.21 0 0 1 -2.62,0.3 H 23 V 0.2 h 3.92 a 9.82,9.82 0 0 1 2.38,0.27 4.32,4.32 0 0 1 1.81,0.92 4.29,4.29 0 0 1 1.16,1.7 7.48,7.48 0 0 1 0.4,2.64 8.21,8.21 0 0 1 -0.38,2.67 z M 29.35,4.45 A 2,2 0 0 0 28.91,3.54 1.8,1.8 0 0 0 28.11,3.02 3.83,3.83 0 0 0 26.9,2.85 H 26.13 V 8.74 H 26.8 A 4.4,4.4 0 0 0 28,8.59 1.87,1.87 0 0 0 28.84,8.09 1.93,1.93 0 0 0 29.31,7.18 5.6,5.6 0 0 0 29.46,5.78 5.77,5.77 0 0 0 29.35,4.45 Z"
           id="path201"
           style="fill:#ffffff" />
        <path
           class="cls-1"
           d="M 46.48,11.4 V 7 H 43 v 4.4 H 39.82 V 0.2 H 43 v 4.08 h 3.49 V 0.2 h 3.17 v 11.2 z"
           id="path203"
           style="fill:#ffffff" />
        <path
           class="cls-1"
           d="m 59.15,11.4 -0.61,-2 h -3.36 l -0.6,2 H 51.25 L 55.31,0.2 h 3.14 l 4.06,11.2 z M 57.58,6.23 C 57.49,5.87 57.4,5.55 57.33,5.23 57.26,4.91 57.19,4.73 57.13,4.51 57.07,4.29 57,4.16 57,4 A 4.86,4.86 0 0 1 56.89,3.45 L 56.75,4 c 0,0.18 -0.09,0.38 -0.15,0.59 -0.06,0.21 -0.13,0.45 -0.2,0.72 -0.07,0.27 -0.16,0.58 -0.26,0.93 l -0.2,0.73 h 1.85 z"
           id="path205"
           style="fill:#ffffff" />
        <path
           class="cls-1"
           d="m 68.37,2.9 v 8.5 H 65.26 V 2.9 H 62.13 V 0.2 h 9.37 v 2.7 z"
           id="path207"
           style="fill:#ffffff" />
        <path
           class="cls-1"
           d="m 74.78,1.73 a 1.16,1.16 0 0 1 -0.26,0.39 1.31,1.31 0 0 1 -0.4,0.26 1.28,1.28 0 0 1 -1,0 1.31,1.31 0 0 1 -0.4,-0.26 1.16,1.16 0 0 1 -0.26,-0.39 1.33,1.33 0 0 1 -0.09,-0.49 1.3,1.3 0 0 1 0.09,-0.49 1.31,1.31 0 0 1 0.26,-0.4 1.53,1.53 0 0 1 0.4,-0.26 1.33,1.33 0 0 1 0.5,-0.09 1.35,1.35 0 0 1 0.5,0.09 1.53,1.53 0 0 1 0.4,0.26 1.31,1.31 0 0 1 0.26,0.4 1.3,1.3 0 0 1 0.1,0.49 1.34,1.34 0 0 1 -0.1,0.49 z m -0.2,-0.9 A 1.21,1.21 0 0 0 74.36,0.51 0.93,0.93 0 0 0 74,0.3 1.07,1.07 0 0 0 73.59,0.22 a 1.06,1.06 0 0 0 -0.4,0.08 0.93,0.93 0 0 0 -0.33,0.21 1.21,1.21 0 0 0 -0.22,0.32 1.1,1.1 0 0 0 -0.07,0.41 1.05,1.05 0 0 0 0.07,0.4 1.07,1.07 0 0 0 0.22,0.32 0.83,0.83 0 0 0 0.33,0.22 1.06,1.06 0 0 0 0.4,0.08 A 1.07,1.07 0 0 0 74,2.18 0.83,0.83 0 0 0 74.36,2 1.07,1.07 0 0 0 74.58,1.68 1.05,1.05 0 0 0 74.65,1.28 1.1,1.1 0 0 0 74.58,0.83 Z m -0.44,0.4 a 0.5,0.5 0 0 1 -0.19,0.13 l 0.26,0.53 H 73.89 L 73.64,1.4 H 73.41 V 1.89 H 73.12 V 0.54 h 0.63 a 0.55,0.55 0 0 1 0.34,0.1 0.38,0.38 0 0 1 0.13,0.32 0.41,0.41 0 0 1 -0.08,0.27 z M 73.87,0.84 a 0.2,0.2 0 0 0 -0.14,0 h -0.32 v 0.35 h 0.32 c 0.13,0 0.2,-0.06 0.2,-0.18 A 0.15,0.15 0 0 0 73.87,0.84 Z"
           id="path209"
           style="fill:#ffffff" />
        <path
           class="cls-1"
           d="M 11.76,31.23 10.32,27 H 3.38 L 1.92,31.23 H 0 L 5.83,14.43 H 7.9 l 5.83,16.8 z M 7.9,19.73 C 7.8,19.46 7.7,19.16 7.6,18.84 7.5,18.52 7.39,18.22 7.3,17.92 7.21,17.62 7.12,17.34 7.04,17.08 6.96,16.82 6.91,16.6 6.87,16.42 6.87,16.6 6.76,16.81 6.68,17.07 6.6,17.33 6.53,17.6 6.43,17.91 6.33,18.22 6.23,18.53 6.12,18.86 6.01,19.19 5.9,19.49 5.81,19.78 L 4,25.25 h 5.74 z"
           id="path211"
           style="fill:#ffffff" />
        <path
           class="cls-1"
           d="M 29.9,31.23 V 18.05 c 0,0.16 -0.1,0.36 -0.18,0.59 -0.08,0.23 -0.15,0.47 -0.25,0.72 -0.1,0.25 -0.19,0.5 -0.28,0.76 L 28.9,20.84 24.42,31.66 20,20.84 C 19.91,20.63 19.81,20.39 19.72,20.13 L 19.44,19.36 Q 19.3,18.99 19.2,18.64 L 19,18.05 v 13.18 h -1.79 v -16.8 h 2.09 l 4,10.05 c 0.09,0.26 0.2,0.54 0.32,0.84 0.12,0.3 0.24,0.61 0.35,0.92 0.11,0.31 0.22,0.58 0.31,0.85 0.09,0.27 0.17,0.48 0.22,0.66 0.05,-0.18 0.12,-0.4 0.22,-0.67 0.1,-0.27 0.19,-0.56 0.31,-0.87 0.12,-0.31 0.23,-0.61 0.35,-0.91 0.12,-0.3 0.22,-0.58 0.32,-0.82 l 4,-10 h 2 v 16.8 z"
           id="path213"
           style="fill:#ffffff" />
        <path
           class="cls-1"
           d="m 48.55,27 a 8,8 0 0 1 -2.16,3 l 1.08,1.75 -1.53,0.91 L 44.88,31 a 6.12,6.12 0 0 1 -2.54,0.53 6.2,6.2 0 0 1 -5,-2.42 8.36,8.36 0 0 1 -1.41,-2.74 11.57,11.57 0 0 1 -0.49,-3.48 11.73,11.73 0 0 1 0.5,-3.49 8.62,8.62 0 0 1 1.42,-2.75 6.41,6.41 0 0 1 2.21,-1.8 6.29,6.29 0 0 1 2.85,-0.65 6.41,6.41 0 0 1 2.85,0.64 6.29,6.29 0 0 1 2.19,1.79 8.62,8.62 0 0 1 1.42,2.73 11.35,11.35 0 0 1 0.5,3.48 10.66,10.66 0 0 1 -0.83,4.16 z m -1.47,-7 a 7.09,7.09 0 0 0 -1.1,-2.2 4.78,4.78 0 0 0 -1.63,-1.42 4.27,4.27 0 0 0 -2,-0.49 4.14,4.14 0 0 0 -2,0.49 4.81,4.81 0 0 0 -1.6,1.39 6.76,6.76 0 0 0 -1.05,2.19 9.79,9.79 0 0 0 -0.39,2.86 9.48,9.48 0 0 0 0.4,2.87 7.12,7.12 0 0 0 1.08,2.21 4.75,4.75 0 0 0 1.62,1.42 4.39,4.39 0 0 0 2,0.49 A 4.27,4.27 0 0 0 44,29.5 l -1.37,-2.23 1.54,-0.91 1.34,2.2 A 5.94,5.94 0 0 0 47,26.26 10,10 0 0 0 47.52,22.85 9.91,9.91 0 0 0 47.08,20 Z"
           id="path215"
           style="fill:#ffffff" />
        <path
           class="cls-1"
           d="m 69.37,30 a 6,6 0 0 1 -4.07,1.24 h -6 V 14.43 h 6.14 a 6.2,6.2 0 0 1 1.84,0.25 4,4 0 0 1 1.44,0.77 3.4,3.4 0 0 1 1,1.3 4.84,4.84 0 0 1 0.28,1.87 3.4,3.4 0 0 1 -0.67,2.22 3.92,3.92 0 0 1 -1.75,1.21 4.94,4.94 0 0 1 1.15,0.44 3.73,3.73 0 0 1 1.78,2 4.8,4.8 0 0 1 0.29,1.74 A 4.72,4.72 0 0 1 69.37,30 Z M 67.44,16.84 a 2.76,2.76 0 0 0 -2.09,-0.71 h -4.2 v 5.21 h 4.06 a 2.81,2.81 0 0 0 2.23,-0.78 2.73,2.73 0 0 0 0.67,-1.87 2.55,2.55 0 0 0 -0.67,-1.85 z m 0.5,7.07 A 3.74,3.74 0 0 0 65.33,23 h -4.18 v 6.48 h 4.27 a 3.5,3.5 0 0 0 2.69,-0.86 3.26,3.26 0 0 0 0.79,-2.3 3.11,3.11 0 0 0 -0.96,-2.41 z"
           id="path217"
           style="fill:#ffffff" />
        <path
           class="cls-1"
           d="m 85.1,22.35 a 5.23,5.23 0 0 1 -2.88,1.58 l 3.7,7.3 h -2.16 l -3.6,-7.15 h -4 v 7.15 H 74.3 V 14.43 H 81 a 6.91,6.91 0 0 1 2.07,0.29 4.49,4.49 0 0 1 1.65,0.87 4.24,4.24 0 0 1 1.11,1.48 5,5 0 0 1 0.4,2.11 4.56,4.56 0 0 1 -1.13,3.17 z m -1.66,-5.44 a 3.75,3.75 0 0 0 -2.56,-0.78 h -4.7 v 6.24 h 4.46 a 4.14,4.14 0 0 0 2.77,-0.78 2.92,2.92 0 0 0 0.9,-2.35 3,3 0 0 0 -0.87,-2.33 z"
           id="path219"
           style="fill:#ffffff" />
        <path
           class="cls-1"
           d="m 102.29,26.3 a 8.29,8.29 0 0 1 -1.43,2.7 6.63,6.63 0 0 1 -2.22,1.8 6.2,6.2 0 0 1 -2.86,0.65 6.33,6.33 0 0 1 -2.84,-0.63 6.44,6.44 0 0 1 -2.2,-1.79 8.54,8.54 0 0 1 -1.4,-2.74 11.57,11.57 0 0 1 -0.49,-3.48 11.73,11.73 0 0 1 0.5,-3.49 8.62,8.62 0 0 1 1.42,-2.75 6.41,6.41 0 0 1 2.23,-1.76 6.29,6.29 0 0 1 2.85,-0.65 6.25,6.25 0 0 1 5,2.43 8.62,8.62 0 0 1 1.42,2.73 11.66,11.66 0 0 1 0.5,3.48 11.79,11.79 0 0 1 -0.48,3.5 z M 100.52,20 a 6.86,6.86 0 0 0 -1.09,-2.2 4.87,4.87 0 0 0 -1.63,-1.42 4.27,4.27 0 0 0 -2,-0.49 4.14,4.14 0 0 0 -2,0.49 4.81,4.81 0 0 0 -1.6,1.39 7,7 0 0 0 -1.06,2.19 10.15,10.15 0 0 0 -0.38,2.86 9.48,9.48 0 0 0 0.4,2.87 7.12,7.12 0 0 0 1.08,2.21 4.66,4.66 0 0 0 1.62,1.42 4.39,4.39 0 0 0 2,0.49 4.33,4.33 0 0 0 2,-0.49 4.77,4.77 0 0 0 1.61,-1.4 6.92,6.92 0 0 0 1.06,-2.18 10.23,10.23 0 0 0 0.38,-2.87 9.57,9.57 0 0 0 -0.39,-2.87 z"
           id="path221"
           style="fill:#ffffff" />
        <path
           class="cls-1"
           d="m 116.52,31.23 -5,-8.95 -3.19,4.12 v 4.83 h -1.87 v -16.8 h 1.87 V 24 l 0.47,-0.66 0.66,-0.9 c 0.24,-0.32 0.47,-0.63 0.71,-0.93 0.24,-0.3 0.43,-0.57 0.61,-0.79 l 4.87,-6.29 h 2 l -4.92,6.31 5.86,10.49 z"
           id="path223"
           style="fill:#ffffff" />
        <path
           class="cls-1"
           d="m 121.9,31.23 v -16.8 h 10.15 v 1.7 h -8.28 v 5.28 h 4.8 v 1.71 h -4.8 v 6.4 h 8.64 v 1.71 z"
           id="path225"
           style="fill:#ffffff" />
        <path
           class="cls-1"
           d="m 146.78,22.35 a 5.23,5.23 0 0 1 -2.88,1.58 l 3.7,7.3 h -2.16 l -3.6,-7.15 h -4 v 7.15 H 136 v -16.8 h 6.65 a 6.91,6.91 0 0 1 2.07,0.29 4.49,4.49 0 0 1 1.65,0.87 4.24,4.24 0 0 1 1.11,1.48 5,5 0 0 1 0.4,2.11 4.56,4.56 0 0 1 -1.1,3.17 z m -1.66,-5.44 a 3.75,3.75 0 0 0 -2.56,-0.78 h -4.7 v 6.24 h 4.46 a 4.14,4.14 0 0 0 2.77,-0.78 2.92,2.92 0 0 0 0.9,-2.35 3,3 0 0 0 -0.87,-2.33 z"
           id="path227"
           style="fill:#ffffff" />
      </g>
    </g>
  </g>
</svg>
